<?xml version="1.0" encoding="utf-8"?><svg viewBox="0 0 800 800" xmlns="http://www.w3.org/2000/svg" xmlns:xlink="http://www.w3.org/1999/xlink"><style>:root>svg{display:none}:root>svg:target{display:block}</style><svg fill="none" viewBox="0 0 6 12" id="arrowFooter" xmlns="http://www.w3.org/2000/svg"><path fill-rule="evenodd" clip-rule="evenodd" d="M.22 11.03a.75.75 0 0 1 0-1.06L4.19 6 .22 2.03A.75.75 0 1 1 1.28.97l4.5 4.5a.75.75 0 0 1 0 1.06l-4.5 4.5a.75.75 0 0 1-1.06 0Z" fill="#0A142F"/></svg><svg viewBox="0 0 22 22" id="ballFooter" xmlns="http://www.w3.org/2000/svg"><path d="M11 .5C5.203.5.5 5.203.5 11S5.203 21.5 11 21.5 21.5 16.802 21.5 11 16.797.5 11 .5Zm6.667 4.84a8.736 8.736 0 0 1 2.062 5.08c-1.892-.098-4.156-.098-5.972.071-.23-.58-.465-1.148-.722-1.695 2.094-.908 3.707-2.1 4.632-3.456ZM11 2.25a8.71 8.71 0 0 1 5.584 2.013c-.952 1.202-2.445 2.25-4.304 3.04-1.018-1.881-2.188-3.5-3.436-4.774A8.79 8.79 0 0 1 11 2.249Zm-3.96.957c1.264 1.258 2.45 2.86 3.49 4.734-1.975.604-4.239.95-6.655.95a21.6 21.6 0 0 1-1.35-.044 8.755 8.755 0 0 1 4.515-5.64Zm-4.774 7.377c.498.022 1.001.033 1.51.028 2.756-.033 5.32-.465 7.525-1.172.208.432.405.875.59 1.329a5.41 5.41 0 0 0-.782.234c-3.013 1.266-5.386 3.305-6.671 5.772A8.719 8.719 0 0 1 2.25 11c0-.14.005-.279.016-.416ZM11 19.75a8.699 8.699 0 0 1-5.365-1.843c1.165-2.308 3.243-4.219 5.863-5.403.246-.115.574-.208.951-.29.313.864.592 1.76.837 2.69a31.79 31.79 0 0 1 .808 4.272A8.678 8.678 0 0 1 11 19.75Zm4.73-1.394a30.34 30.34 0 0 0-1.444-6.388c1.718-.14 3.774-.12 5.41 0a8.741 8.741 0 0 1-3.965 6.388Z"/></svg><svg viewBox="0 0 15 16" id="buttonArrow" xmlns="http://www.w3.org/2000/svg"><path fill-rule="evenodd" clip-rule="evenodd" d="M15 1.125A.625.625 0 0 0 14.375.5h-7.5a.625.625 0 1 0 0 1.25h5.991L.182 14.432a.626.626 0 1 0 .885.886L13.75 2.634v5.991a.625.625 0 1 0 1.25 0v-7.5Z"/></svg><svg viewBox="0 0 22 22" id="catFooter" xmlns="http://www.w3.org/2000/svg"><path d="M11 .5C5.202.5.5 5.323.5 11.267c0 4.758 3.01 8.79 7.181 10.214a.82.82 0 0 0 .178.019c.39 0 .54-.286.54-.534 0-.258-.01-.933-.015-1.833a4.802 4.802 0 0 1-1.059.126c-2.02 0-2.48-1.57-2.48-1.57-.478-1.242-1.167-1.575-1.167-1.575-.914-.642-.005-.66.066-.66h.004c1.055.093 1.608 1.115 1.608 1.115.525.919 1.228 1.176 1.857 1.176a2.953 2.953 0 0 0 1.2-.28c.093-.695.365-1.168.665-1.44-2.33-.272-4.781-1.195-4.781-5.32 0-1.177.408-2.138 1.078-2.888-.108-.272-.469-1.369.103-2.85a.874.874 0 0 1 .235-.023c.38 0 1.237.145 2.653 1.13a9.76 9.76 0 0 1 5.259 0c1.416-.985 2.273-1.13 2.653-1.13a.873.873 0 0 1 .235.023c.571 1.481.21 2.578.103 2.85.67.755 1.078 1.716 1.078 2.888 0 4.134-2.456 5.043-4.796 5.31.375.333.713.99.713 1.993 0 1.439-.014 2.601-.014 2.953 0 .253.145.539.534.539a.9.9 0 0 0 .188-.019c4.176-1.425 7.181-5.46 7.181-10.214C21.5 5.323 16.798.5 11 .5Z"/></svg><svg fill="none" viewBox="0 0 28 28" id="chek" xmlns="http://www.w3.org/2000/svg"><path d="M26.5 12.85V14a12.5 12.5 0 1 1-7.413-11.425"/><path d="M26.5 4 14 16.512l-3.75-3.75"/></svg><svg viewBox="0 0 22 22" id="facebookFooter" xmlns="http://www.w3.org/2000/svg"><path fill-rule="evenodd" clip-rule="evenodd" d="M21.5 11.063c0-5.798-4.702-10.5-10.5-10.5S.5 5.265.5 11.063c0 5.241 3.84 9.585 8.86 10.373V14.1H6.692v-3.037h2.666V8.75c0-2.63 1.568-4.085 3.966-4.085 1.15 0 2.351.205 2.351.205v2.584h-1.324c-1.304 0-1.712.81-1.712 1.64v1.97h2.912l-.465 3.036h-2.446v7.337c5.02-.788 8.859-5.132 8.859-10.374Z"/></svg><svg viewBox="0 0 14 14" id="fullscreen" xmlns="http://www.w3.org/2000/svg"><path d="M2 9H0v5h5v-2H2V9ZM0 5h2V2h3V0H0v5Zm12 7H9v2h5V9h-2v3ZM9 0v2h3v3h2V0H9Z" fill="var(--color3)" fill-rule="evenodd"/></svg><svg viewBox="0 0 62 48" id="marks" xmlns="http://www.w3.org/2000/svg"><path d="M28.8 35.46a11.602 11.602 0 0 1-3.808 9.1l-.01.008a13.648 13.648 0 0 1-9.524 3.428h.022A14.416 14.416 0 0 1 4.128 43.4l-.008-.008A17.592 17.592 0 0 1 .006 31.106l-.002.042a32.482 32.482 0 0 1 2.53-13.538l-.08.214A32.375 32.375 0 0 1 8.356 8.69l-.022.024a29.758 29.758 0 0 1 7.008-5.606l.144-.076A43.602 43.602 0 0 1 21.638.098l.312-.106 6.268 10.58a16.182 16.182 0 0 0-6.634 4.964l-.026.034a13.748 13.748 0 0 0-3.13 7.282l-.006.064a9.685 9.685 0 0 1 7.142 3.416l.012.014a12.678 12.678 0 0 1 3.228 9.14l.002-.03-.006.004Zm33.896 0a11.614 11.614 0 0 1-3.81 9.102l-.01.008a13.638 13.638 0 0 1-9.524 3.428h.022a14.406 14.406 0 0 1-11.352-4.596l-.008-.01A17.584 17.584 0 0 1 33.9 31.104l-.002.042a32.483 32.483 0 0 1 2.53-13.538l-.08.214a32.406 32.406 0 0 1 5.898-9.134l-.022.024a29.768 29.768 0 0 1 7.01-5.606l.144-.076A43.386 43.386 0 0 1 55.53.096l.312-.106 6.266 10.58a16.187 16.187 0 0 0-6.634 4.968l-.026.034a13.748 13.748 0 0 0-3.13 7.282l-.006.064a9.673 9.673 0 0 1 7.138 3.416l.012.014a12.67 12.67 0 0 1 3.234 9.138l.002-.03-.002.004Z"/></svg><svg viewBox="0 0 24 24" id="pause" xmlns="http://www.w3.org/2000/svg"><path opacity=".1" d="M14 19V5a2 2 0 0 1 2-2h1a2 2 0 0 1 2 2v14a2 2 0 0 1-2 2h-1a2 2 0 0 1-2-2ZM10 19V5a2 2 0 0 0-2-2H7a2 2 0 0 0-2 2v14a2 2 0 0 0 2 2h1a2 2 0 0 0 2-2Z" fill="var(--color3)"/><path d="M14 19V5a2 2 0 0 1 2-2h1a2 2 0 0 1 2 2v14a2 2 0 0 1-2 2h-1a2 2 0 0 1-2-2ZM10 19V5a2 2 0 0 0-2-2H7a2 2 0 0 0-2 2v14a2 2 0 0 0 2 2h1a2 2 0 0 0 2-2Z" stroke="#323232" stroke-width="2" stroke-linecap="round" stroke-linejoin="round"/></svg><svg fill="var(--color3)" viewBox="0 0 58.752 58.752" xml:space="preserve" id="play" xmlns="http://www.w3.org/2000/svg"><path d="M52.524 23.925 12.507.824c-1.907-1.1-4.376-1.097-6.276 0a6.294 6.294 0 0 0-3.143 5.44v46.205a6.29 6.29 0 0 0 3.131 5.435 6.263 6.263 0 0 0 6.29.005l40.017-23.103a6.3 6.3 0 0 0 3.138-5.439 6.315 6.315 0 0 0-3.14-5.442zm-3 5.687L9.504 52.716a.27.27 0 0 1-.279-.005.28.28 0 0 1-.137-.242V6.263a.28.28 0 0 1 .421-.243l40.01 23.098a.29.29 0 0 1 .145.249.283.283 0 0 1-.14.245z"/></svg><svg fill="none" viewBox="0 0 151 152" id="playButtonIcon" xmlns="http://www.w3.org/2000/svg"><path d="m117.933 86.91 1.656-4.221 13.676 5.367-1.73 4.407c-.52 1.326-1.24 2.354-2.158 3.083-.913.73-1.978 1.147-3.195 1.25-1.213.105-2.527-.12-3.942-.676-1.425-.559-2.552-1.294-3.381-2.205a5.838 5.838 0 0 1-1.494-3.145c-.166-1.185.023-2.472.568-3.86Zm2.475-1.989-.964 2.458c-.444 1.13-.593 2.153-.449 3.068a4.332 4.332 0 0 0 1.211 2.394c.662.68 1.55 1.24 2.663 1.677 1.104.433 2.125.626 3.063.578.943-.047 1.769-.344 2.477-.893.714-.547 1.28-1.355 1.699-2.424l1.038-2.644-10.738-4.214ZM113.989 96.754l9.004 6.351-.976 1.383-9.004-6.35.976-1.384Zm10.008 8.112c.19-.269.446-.437.768-.503.318-.062.607-.002.865.18s.411.434.46.755a1.21 1.21 0 0 1-.217.892c-.19.269-.445.435-.763.497a1.07 1.07 0 0 1-.869-.174 1.075 1.075 0 0 1-.456-.76 1.18 1.18 0 0 1 .212-.887ZM105.057 101.843c.609-.545 1.203-.936 1.781-1.172.575-.24 1.122-.364 1.641-.373.512-.009.981.052 1.407.183l-.372 1.606a10.491 10.491 0 0 0-.892-.125c-.35-.04-.74.005-1.171.134-.437.129-.903.415-1.398.858-.662.594-1.065 1.244-1.209 1.951-.143.707.091 1.402.704 2.086l1.494 1.666.107-.096a9.214 9.214 0 0 1-.103-.909c-.027-.368.041-.779.205-1.234.163-.448.512-.912 1.046-1.391.662-.593 1.397-.97 2.205-1.129.805-.156 1.628-.072 2.471.252.839.327 1.641.917 2.407 1.772.754.84 1.262 1.705 1.525 2.593.266.891.289 1.744.069 2.559-.218.817-.672 1.536-1.363 2.155-.534.479-1.037.77-1.51.873-.473.109-.894.127-1.263.053a11.32 11.32 0 0 1-.883-.191l-.129.115 1.169 1.304-1.218 1.091-7.566-8.439c-.632-.705-.986-1.422-1.061-2.15a3.673 3.673 0 0 1 .406-2.127c.345-.689.846-1.327 1.501-1.915Zm4.084 4.47c-.505.453-.829.952-.97 1.496-.142.545-.109 1.115.099 1.713.208.597.583 1.198 1.126 1.803.53.592 1.087 1.033 1.67 1.326.584.293 1.165.411 1.743.354.579-.056 1.125-.314 1.638-.774.534-.479.858-1.013.971-1.603.11-.587.05-1.188-.181-1.803-.234-.612-.6-1.196-1.098-1.752-.511-.569-1.052-.993-1.622-1.272-.571-.271-1.145-.374-1.721-.307-.576.074-1.128.347-1.655.819ZM100.996 111.335l5.322 9.648-1.482.818-5.322-9.648 1.482-.818Zm5.455 11.672a1.2 1.2 0 0 1 .911-.117c.313.083.546.263.699.54.152.276.18.569.084.879a1.205 1.205 0 0 1-.585.708c-.289.159-.59.197-.904.113a1.074 1.074 0 0 1-.706-.536 1.074 1.074 0 0 1-.077-.883c.097-.31.289-.545.578-.704ZM93.992 126.979l-.437-1.366 5.437-1.742.438 1.366-5.438 1.742Zm4.659 1.28-1.613.516-3.204-10.001c-.146-.455-.321-.775-.526-.961a1.077 1.077 0 0 0-.664-.284 2.165 2.165 0 0 0-.711.107c-.178.057-.32.113-.428.167l-.256.143-.792-1.344a3.49 3.49 0 0 1 .418-.269c.181-.108.422-.211.723-.307a3.402 3.402 0 0 1 1.433-.135c.495.057.95.24 1.366.549.41.31.714.77.91 1.381l3.344 10.438ZM84.127 118.283a4.467 4.467 0 0 1 1.924.261 3.27 3.27 0 0 1 1.433 1.058c.369.483.578 1.082.628 1.797.044.63-.045 1.149-.266 1.558-.22.413-.53.746-.93.999s-.846.452-1.339.597c-.498.149-1 .275-1.505.378-.662.132-1.199.234-1.611.306-.417.077-.716.177-.9.3-.188.123-.272.321-.253.592l.004.058c.049.706.28 1.241.694 1.605.409.365 1.002.52 1.78.466.806-.056 1.426-.276 1.86-.661.433-.385.728-.785.887-1.198l1.642.461c-.24.688-.585 1.234-1.036 1.639-.456.411-.962.71-1.52.897a6.553 6.553 0 0 1-1.673.347 6.767 6.767 0 0 1-1.225-.045 3.9 3.9 0 0 1-1.374-.415c-.452-.227-.839-.591-1.161-1.091-.323-.5-.514-1.187-.575-2.06l-.504-7.241 1.69-.118.103 1.489.086-.006c.097-.247.27-.515.519-.806.248-.29.587-.547 1.018-.768.43-.222.965-.355 1.604-.399Zm-.152 1.535c-.668.046-1.222.216-1.661.511-.445.294-.77.657-.974 1.088-.21.432-.299.877-.267 1.335l.107 1.546c.066-.091.218-.181.456-.269.234-.084.507-.163.818-.237.307-.069.607-.133.9-.192.288-.054.523-.099.702-.135.435-.088.839-.21 1.212-.365.368-.15.66-.36.876-.629.212-.264.303-.611.273-1.04-.04-.587-.289-1.015-.744-1.286-.46-.265-1.025-.374-1.698-.327ZM70.237 133.485l2.198-14.525 1.674.253-2.198 14.526-1.674-.254Z" fill="var(--color2)"/><path d="m54.34 120.743-1.763 2.62 3.16-.03-.051 1.387-3.16-.24 1.616 2.726-1.22.661-1.374-2.846-1.568 2.742-1.17-.727 1.762-2.62-3.16.03.051-1.387 3.16.24-1.616-2.726 1.22-.661 1.375 2.846 1.567-2.742 1.17.727Z" fill="var(--color1)"/><path d="M42.787 103.402c.377.588.608 1.193.694 1.814a3.261 3.261 0 0 1-.24 1.764c-.246.556-.67 1.027-1.274 1.414-.532.341-1.03.513-1.494.515a2.631 2.631 0 0 1-1.323-.336 5.193 5.193 0 0 1-1.166-.888c-.37-.364-.722-.744-1.055-1.139a68.543 68.543 0 0 1-1.042-1.266c-.267-.328-.5-.543-.695-.645-.198-.105-.412-.085-.642.063l-.048.031c-.596.382-.954.842-1.075 1.379-.124.534.025 1.129.446 1.785.436.68.927 1.118 1.473 1.314.546.195 1.038.263 1.477.203l.384 1.662c-.718.12-1.363.08-1.935-.122a4.291 4.291 0 0 1-1.517-.902 6.537 6.537 0 0 1-1.107-1.301 6.711 6.711 0 0 1-.55-1.096 3.9 3.9 0 0 1-.295-1.404c-.018-.506.115-1.02.4-1.543.283-.523.793-1.021 1.53-1.493l6.11-3.92.914 1.425-1.256.806.047.072c.263-.032.582-.009.956.069s.761.253 1.163.524c.4.271.774.676 1.12 1.215Zm-1.42.604c-.36-.563-.776-.967-1.245-1.212-.472-.248-.947-.359-1.423-.331-.48.023-.912.159-1.299.407l-1.304.836c.111.014.263.104.455.271.185.165.385.366.6.603.208.236.408.469.6.697.186.228.338.412.456.552.286.339.587.635.902.887.309.251.633.407.973.467.333.059.68-.028 1.043-.26.495-.318.752-.741.77-1.27.013-.53-.163-1.079-.527-1.647ZM40.366 91.64c.241.782.347 1.484.32 2.109-.024.622-.14 1.17-.35 1.646-.205.468-.457.869-.755 1.2l-1.302-1.01c.147-.205.309-.457.487-.757.182-.302.305-.675.368-1.12.067-.45.002-.993-.194-1.629-.261-.85-.683-1.488-1.265-1.914-.581-.427-1.31-.505-2.188-.235l-2.14.659.043.137c.228.06.518.156.869.288.345.129.69.363 1.034.702.339.336.614.847.825 1.533.262.85.296 1.675.102 2.475-.195.796-.617 1.508-1.263 2.138-.649.625-1.521 1.106-2.618 1.444-1.079.332-2.076.432-2.993.299-.921-.132-1.705-.469-2.352-1.01-.652-.54-1.114-1.253-1.387-2.14-.211-.685-.265-1.264-.16-1.737.099-.476.259-.865.48-1.169.217-.306.398-.547.544-.722l-.05-.165-1.674.515-.48-1.563 10.831-3.335c.905-.279 1.704-.3 2.398-.063.696.23 1.283.65 1.76 1.259.481.602.851 1.324 1.11 2.165Zm-5.769 1.837c-.2-.65-.517-1.152-.952-1.508-.435-.357-.967-.566-1.597-.627-.63-.062-1.332.027-2.11.267-.758.233-1.392.554-1.902.96-.51.408-.861.886-1.052 1.436-.191.549-.186 1.153.017 1.81.211.686.56 1.204 1.049 1.554.486.346 1.058.543 1.713.591.654.044 1.337-.044 2.05-.264.732-.225 1.343-.538 1.835-.94.486-.405.819-.882 1-1.433.174-.555.157-1.17-.05-1.846ZM33.33 80.852c.025 1.062-.188 1.983-.64 2.763-.455.776-1.1 1.382-1.937 1.817-.842.431-1.827.66-2.955.686-1.128.026-2.127-.156-2.998-.548-.875-.396-1.562-.958-2.062-1.688-.505-.735-.769-1.6-.792-2.594a5.223 5.223 0 0 1 .247-1.706c.179-.564.478-1.08.897-1.55.415-.468.97-.847 1.667-1.136.697-.288 1.559-.445 2.587-.469l.717-.016.197 8.49-1.463.035-.157-6.77c-.622.014-1.173.151-1.655.411a2.81 2.81 0 0 0-1.13 1.074c-.272.456-.4.99-.387 1.602.016.674.197 1.254.543 1.738.341.48.78.846 1.317 1.096.537.25 1.108.37 1.716.355l.975-.022c.832-.02 1.534-.18 2.105-.48.567-.305.996-.719 1.285-1.242.284-.523.419-1.127.403-1.81a3.664 3.664 0 0 0-.215-1.201 2.58 2.58 0 0 0-.595-.926 2.606 2.606 0 0 0-.975-.587l.42-1.646c.56.16 1.054.437 1.484.834.425.397.762.89 1.01 1.483.243.592.374 1.261.391 2.007ZM26.208 70.453l6.43 1.611-.412 1.643-10.688-2.68.398-1.586 1.67.418.035-.139a3.146 3.146 0 0 1-1.022-1.469c-.206-.594-.208-1.294-.006-2.102.182-.723.489-1.32.922-1.787.428-.47.98-.78 1.653-.932.67-.152 1.459-.115 2.368.113l6.791 1.703-.412 1.642-6.68-1.675c-.839-.21-1.548-.156-2.125.162-.583.318-.97.857-1.16 1.617a2.954 2.954 0 0 0-.012 1.491c.125.466.376.871.753 1.217.377.346.876.597 1.497.753ZM36.773 58.447c-.509.9-1.16 1.553-1.951 1.962-.792.409-1.66.577-2.603.505-.943-.072-1.893-.38-2.85-.921-.973-.551-1.732-1.217-2.274-1.997-.544-.786-.843-1.62-.899-2.503-.056-.89.16-1.767.65-2.633.382-.674.85-1.211 1.407-1.61a4.012 4.012 0 0 1 1.801-.736 3.758 3.758 0 0 1 1.937.247l-.834 1.473c-.5-.135-1.029-.104-1.585.092-.558.19-1.02.61-1.388 1.258-.326.575-.46 1.163-.406 1.765.053.596.281 1.168.686 1.716.402.541.965 1.017 1.69 1.427.74.419 1.451.668 2.132.745.684.074 1.3-.017 1.846-.274.548-.26.988-.682 1.318-1.265.216-.383.346-.768.39-1.156.044-.387.002-.76-.125-1.117a2.529 2.529 0 0 0-.638-.971l.834-1.473c.52.403.912.898 1.18 1.483.265.58.38 1.213.342 1.9-.04.682-.26 1.376-.66 2.083ZM43.036 54.074c-.201.205-.398.37-.59.497-.188.13-.328.21-.42.241l-.76-1.354c.364-.219.646-.45.848-.696.2-.245.297-.543.287-.895-.002-.351-.13-.797-.385-1.336l-.391-.829-10.749-4.873 1.29-1.307 8.388 3.997.08-.082-4.118-8.33 1.289-1.308 5.709 12.194c.257.549.41 1.065.457 1.548.051.487-.003.94-.162 1.361a3.34 3.34 0 0 1-.773 1.172Z" fill="var(--color2)"/><path d="m54.436 31.2-.956-3.01-1.942 2.493-1.054-.902 2.153-2.326-3.14-.43.242-1.366 3.083.694-1.173-2.933 1.297-.464.956 3.01 1.941-2.494 1.055.903-2.154 2.325 3.14.43-.241 1.367-3.083-.694 1.172 2.932-1.296.465Z" fill="var(--color1)"/><path d="m76.02 32.665-4.498-.557 1.807-14.58 4.698.582c1.415.176 2.588.618 3.522 1.326.935.704 1.603 1.632 2.004 2.786.402 1.148.51 2.477.323 3.986-.188 1.519-.62 2.793-1.298 3.822a5.826 5.826 0 0 1-2.676 2.227c-1.107.456-2.4.592-3.881.408Zm-2.539-1.905 2.62.325c1.206.15 2.233.04 3.084-.326a4.332 4.332 0 0 0 2.018-1.767c.496-.81.817-1.81.964-2.996.146-1.176.08-2.214-.2-3.11-.278-.903-.771-1.629-1.479-2.18-.707-.554-1.63-.902-2.769-1.043l-2.819-.35-1.419 11.447ZM88.084 34.618a4.478 4.478 0 0 1-1.585-1.121 3.263 3.263 0 0 1-.78-1.6c-.105-.6-.014-1.227.273-1.885.252-.579.571-.998.956-1.258a2.633 2.633 0 0 1 1.287-.456 5.24 5.24 0 0 1 1.463.09c.51.098 1.013.218 1.51.362.647.189 1.17.346 1.57.473.404.125.716.175.935.15.224-.022.39-.158.5-.408l.022-.053c.283-.648.326-1.23.127-1.744-.193-.513-.648-.925-1.362-1.236-.74-.323-1.392-.415-1.955-.274-.562.141-1.009.358-1.34.652L88.46 25.14c.53-.499 1.09-.823 1.677-.974a4.302 4.302 0 0 1 1.762-.092c.588.089 1.135.244 1.644.466.324.142.68.344 1.066.606.393.26.735.595 1.026 1.003.296.411.47.913.525 1.505.055.593-.093 1.29-.443 2.092l-2.902 6.654-1.552-.677.597-1.368-.08-.034c-.2.173-.478.331-.832.474-.355.143-.774.213-1.258.21-.484-.002-1.02-.131-1.607-.388Zm.844-1.29c.614.267 1.184.373 1.71.315.53-.056.986-.227 1.367-.515.386-.286.67-.639.854-1.06l.62-1.42c-.101.05-.277.06-.53.028a7.965 7.965 0 0 1-.834-.168 37.476 37.476 0 0 1-1.572-.451 6.46 6.46 0 0 0-1.243-.237 2.127 2.127 0 0 0-1.068.152c-.31.136-.55.401-.723.796-.235.54-.213 1.034.065 1.484.285.447.736.806 1.354 1.076ZM107.321 27.422l-8.685 11.849-1.366-1.001 8.686-11.849 1.365 1.001ZM103.643 42.694l7.959-7.62 1.171 1.224-7.959 7.619-1.171-1.223Zm9.881-8.267a1.205 1.205 0 0 1-.347-.85c.001-.325.115-.596.343-.814.228-.219.504-.321.829-.307.327.017.605.145.833.383.229.239.342.52.342.845.003.328-.109.601-.337.82a1.073 1.073 0 0 1-.834.3 1.18 1.18 0 0 1-.829-.377ZM110.342 50.088c-.512-.852-.759-1.723-.739-2.61.021-.883.289-1.724.802-2.524.515-.795 1.261-1.485 2.236-2.071.984-.591 1.95-.929 2.898-1.013.951-.08 1.821.078 2.611.474.792.4 1.445 1.026 1.957 1.878.512.853.757 1.721.736 2.604-.02.888-.289 1.73-.808 2.527-.518.802-1.268 1.498-2.252 2.09-.976.586-1.937.917-2.883.995-.944.082-1.812-.078-2.605-.477-.79-.396-1.441-1.02-1.953-1.873Zm1.304-.783c.389.648.875 1.08 1.458 1.3.583.218 1.206.266 1.868.141a5.843 5.843 0 0 0 1.939-.755 5.892 5.892 0 0 0 1.584-1.361 3.466 3.466 0 0 0 .764-1.723c.085-.62-.067-1.254-.456-1.902-.389-.647-.877-1.08-1.464-1.296-.588-.216-1.214-.26-1.88-.134a5.906 5.906 0 0 0-1.946.759 5.863 5.863 0 0 0-1.578 1.358c-.42.526-.671 1.097-.752 1.715-.08.618.074 1.25.463 1.898Z" fill="var(--color2)"/><path d="m124.81 66.59 3.154-.153-1.913-2.515 1.143-.788 1.696 2.678 1.22-2.926 1.259.584-1.46 2.802 3.135-.382.116 1.373-3.154.153 1.913 2.515-1.143.788-1.696-2.677-1.22 2.925-1.259-.584 1.461-2.802-3.135.382-.117-1.372Z" fill="var(--color1)"/></svg><svg viewBox="0 0 17 16" id="scrollArrow" xmlns="http://www.w3.org/2000/svg"><path d="m.032.939 8.282 14.345L16.596.939H15.57L8.314 13.508 1.057.938H.032Z"/><path d="m2.264.939 6.05 10.478L14.364.94h-12.1Z"/></svg><svg viewBox="0 0 24 24" id="stop" xmlns="http://www.w3.org/2000/svg"><path d="M17 19.75H7A2.75 2.75 0 0 1 4.25 17V7A2.75 2.75 0 0 1 7 4.25h10A2.75 2.75 0 0 1 19.75 7v10A2.75 2.75 0 0 1 17 19.75Zm-10-14A1.25 1.25 0 0 0 5.75 7v10A1.25 1.25 0 0 0 7 18.25h10A1.25 1.25 0 0 0 18.25 17V7A1.25 1.25 0 0 0 17 5.75H7Z" fill="var(--color3)"/></svg><svg viewBox="0 0 24 18" id="twitterFooter" xmlns="http://www.w3.org/2000/svg"><path d="M23.25 2.133a9.46 9.46 0 0 1-2.65.717A4.57 4.57 0 0 0 22.63.338c-.908.53-1.9.903-2.932 1.101A4.647 4.647 0 0 0 16.327 0c-2.55 0-4.615 2.034-4.615 4.542a4.37 4.37 0 0 0 .119 1.036A13.158 13.158 0 0 1 2.315.83a4.485 4.485 0 0 0-.627 2.283c0 1.575.821 2.967 2.062 3.782a4.57 4.57 0 0 1-2.1-.567v.056c0 2.204 1.595 4.036 3.704 4.454-.397.105-.805.159-1.216.159-.291 0-.582-.028-.868-.085.587 1.805 2.294 3.118 4.315 3.155a9.356 9.356 0 0 1-6.835 1.88A13.063 13.063 0 0 0 7.816 18c8.501 0 13.146-6.923 13.146-12.928 0-.197-.006-.394-.015-.586a9.304 9.304 0 0 0 2.303-2.353Z"/></svg></svg>